<svg xmlns="http://www.w3.org/2000/svg" width="40" viewBox="0 0 30 30" height="40" version="1.0"><defs><clipPath id="a"><path d="M7.383 7.621H22.62v13.79H7.383Zm0 0"/></clipPath></defs><g clip-path="url(#a)"><path fill="#c2c2c2" d="M20.809 7.625H9.195a1.77 1.77 0 0 0-.695.14 1.82 1.82 0 0 0-1.117 1.672v7.254c0 .243.043.473.137.696.093.222.222.418.394.586a1.803 1.803 0 0 0 1.281.53h3.45l2.066 2.759a.349.349 0 0 0 .293.144.347.347 0 0 0 .289-.144l2.066-2.758h3.45c.242 0 .472-.047.695-.137.223-.094.418-.222.586-.394.172-.168.3-.364.394-.586.094-.223.137-.453.137-.696V9.438a1.82 1.82 0 0 0-1.813-1.813Zm1.09 9.066c0 .145-.028.286-.087.418a1.067 1.067 0 0 1-.585.586 1.04 1.04 0 0 1-.418.086h-3.63a.337.337 0 0 0-.288.145l-1.887 2.512-1.89-2.512a.337.337 0 0 0-.29-.145H9.195a1.04 1.04 0 0 1-.418-.086 1.067 1.067 0 0 1-.586-.586 1.027 1.027 0 0 1-.086-.418V9.438c0-.141.028-.282.086-.415.055-.132.133-.25.235-.351a1.078 1.078 0 0 1 .77-.32h11.613a1.078 1.078 0 0 1 .77.32c.1.101.179.219.233.351.06.133.086.274.086.415Zm-2.18-5.8a.348.348 0 0 1-.106.254.34.34 0 0 1-.258.109h-8.707a.34.34 0 0 1-.257-.11.348.348 0 0 1-.106-.253.35.35 0 0 1 .106-.258.35.35 0 0 1 .257-.106h8.707a.35.35 0 0 1 .258.106.35.35 0 0 1 .106.258Zm0 2.175a.348.348 0 0 1-.106.254.34.34 0 0 1-.258.11h-8.707a.34.34 0 0 1-.257-.11.348.348 0 0 1-.106-.254.35.35 0 0 1 .106-.257.35.35 0 0 1 .257-.106h8.707a.35.35 0 0 1 .258.106.35.35 0 0 1 .106.257Zm0 2.176a.348.348 0 0 1-.106.254.34.34 0 0 1-.258.11h-8.707a.34.34 0 0 1-.257-.11.348.348 0 0 1-.106-.254.35.35 0 0 1 .106-.258.35.35 0 0 1 .257-.105h8.707a.35.35 0 0 1 .258.105.35.35 0 0 1 .106.258Zm0 0"/></g></svg>