<svg xmlns="http://www.w3.org/2000/svg" xmlns:xlink="http://www.w3.org/1999/xlink" width="40" zoomAndPan="magnify" viewBox="0 0 30 30.000001" height="40" preserveAspectRatio="xMidYMid meet" version="1.0"><defs><clipPath id="317b7f1d03"><path d="M 9.578125 7.621094 L 20.464844 7.621094 L 20.464844 21.410156 L 9.578125 21.410156 Z M 9.578125 7.621094 " clip-rule="nonzero"/></clipPath></defs><g clip-path="url(#317b7f1d03)"><path fill="#e1e1e1" d="M 9.949219 21.34375 C 9.585938 21.15625 9.59375 20.5625 9.964844 20.40625 C 10.070312 20.363281 10.875 20.339844 14.355469 20.277344 C 20 20.179688 20.046875 20.179688 20.195312 20.265625 C 20.363281 20.363281 20.460938 20.558594 20.441406 20.757812 C 20.417969 20.972656 20.328125 21.097656 20.140625 21.179688 C 19.996094 21.242188 19.652344 21.25 16.070312 21.308594 C 13.917969 21.34375 11.691406 21.378906 11.117188 21.390625 C 10.179688 21.410156 10.066406 21.40625 9.949219 21.34375 Z M 14.617188 19.199219 C 14.519531 19.148438 12.960938 17.757812 11.105469 16.070312 C 10.777344 15.773438 10.492188 15.484375 10.472656 15.433594 C 10.300781 14.984375 10.765625 14.542969 11.1875 14.761719 C 11.242188 14.789062 11.96875 15.425781 12.800781 16.171875 C 13.632812 16.917969 14.335938 17.53125 14.363281 17.53125 C 14.410156 17.53125 14.414062 17.238281 14.394531 15.601562 C 14.378906 14.539062 14.359375 12.417969 14.347656 10.886719 C 14.324219 8.117188 14.324219 8.101562 14.402344 7.980469 C 14.632812 7.621094 15.109375 7.625 15.316406 7.988281 C 15.386719 8.113281 15.394531 8.398438 15.449219 14.90625 C 15.464844 16.390625 15.488281 17.617188 15.503906 17.625 C 15.523438 17.636719 16.085938 17.15625 16.757812 16.5625 C 18.679688 14.851562 18.667969 14.863281 18.808594 14.835938 C 19.117188 14.777344 19.433594 15.03125 19.433594 15.328125 C 19.433594 15.417969 19.414062 15.535156 19.390625 15.589844 C 19.328125 15.722656 15.527344 19.082031 15.378906 19.132812 C 15.195312 19.199219 14.90625 19.261719 14.8125 19.261719 C 14.765625 19.257812 14.679688 19.230469 14.617188 19.199219 Z M 14.617188 19.199219 " fill-opacity="1" fill-rule="nonzero"/></g></svg>