<svg xmlns="http://www.w3.org/2000/svg" xmlns:xlink="http://www.w3.org/1999/xlink" width="80" zoomAndPan="magnify" viewBox="0 0 60 60" height="80" preserveAspectRatio="xMidYMid meet" version="1.0"><defs><clipPath id="f44de55cc3"><path d="M 15.894531 10.238281 L 44.394531 10.238281 L 44.394531 49.988281 L 15.894531 49.988281 Z M 15.894531 10.238281 " clip-rule="nonzero"/></clipPath></defs><g clip-path="url(#f44de55cc3)"><path fill="#f47521" d="M 30.144531 34.367188 C 30.339844 34.367188 30.527344 34.445312 30.664062 34.589844 L 42.96875 47.484375 L 42.96875 11.667969 L 17.320312 11.667969 L 17.320312 47.484375 L 29.625 34.589844 C 29.761719 34.445312 29.949219 34.367188 30.144531 34.367188 Z M 43.683594 49.972656 C 43.488281 49.972656 43.304688 49.898438 43.164062 49.753906 L 30.144531 36.109375 L 17.125 49.753906 C 16.925781 49.964844 16.613281 50.03125 16.339844 49.925781 C 16.074219 49.8125 15.894531 49.554688 15.894531 49.265625 L 15.894531 10.960938 C 15.894531 10.566406 16.210938 10.25 16.605469 10.25 L 43.683594 10.25 C 44.078125 10.25 44.394531 10.566406 44.394531 10.960938 L 44.394531 49.265625 C 44.394531 49.554688 44.214844 49.8125 43.945312 49.925781 C 43.859375 49.957031 43.769531 49.972656 43.683594 49.972656 " fill-opacity="1" fill-rule="nonzero"/></g></svg>