<svg xmlns="http://www.w3.org/2000/svg" xmlns:xlink="http://www.w3.org/1999/xlink" width="40" zoomAndPan="magnify" viewBox="0 0 30 30.000001" height="40" preserveAspectRatio="xMidYMid meet" version="1.0"><defs><clipPath id="487da706eb"><path d="M 13.277344 7.621094 L 16.90625 7.621094 L 16.90625 21.410156 L 13.277344 21.410156 Z M 13.277344 7.621094 " clip-rule="nonzero"/></clipPath></defs><g clip-path="url(#487da706eb)"><path fill="#e1e1e1" d="M 15.089844 11.070312 C 16.09375 11.070312 16.90625 10.296875 16.90625 9.34375 C 16.90625 8.390625 16.09375 7.621094 15.089844 7.621094 C 14.089844 7.621094 13.277344 8.390625 13.277344 9.34375 C 13.277344 10.296875 14.089844 11.070312 15.089844 11.070312 Z M 15.089844 12.792969 C 14.089844 12.792969 13.277344 13.5625 13.277344 14.515625 C 13.277344 15.46875 14.089844 16.238281 15.089844 16.238281 C 16.09375 16.238281 16.90625 15.46875 16.90625 14.515625 C 16.90625 13.5625 16.09375 12.792969 15.089844 12.792969 Z M 15.089844 17.964844 C 14.089844 17.964844 13.277344 18.734375 13.277344 19.6875 C 13.277344 20.640625 14.089844 21.410156 15.089844 21.410156 C 16.09375 21.410156 16.90625 20.640625 16.90625 19.6875 C 16.90625 18.734375 16.09375 17.964844 15.089844 17.964844 Z M 15.089844 17.964844 " fill-opacity="1" fill-rule="nonzero"/></g></svg>